<?xml version="1.0" encoding="UTF-8" standalone="no"?>
<svg
   xmlns:dc="http://purl.org/dc/elements/1.1/"
   xmlns:cc="http://creativecommons.org/ns#"
   xmlns:rdf="http://www.w3.org/1999/02/22-rdf-syntax-ns#"
   xmlns:svg="http://www.w3.org/2000/svg"
   xmlns="http://www.w3.org/2000/svg"
   xmlns:sodipodi="http://sodipodi.sourceforge.net/DTD/sodipodi-0.dtd"
   xmlns:inkscape="http://www.inkscape.org/namespaces/inkscape"
   width="2339.4961"
   height="628.58191"
   viewBox="126.444 2.281 551.18528 148.0939"
   version="1.1"
   id="svg14"
   sodipodi:docname="contato.svg"
   inkscape:version="0.92.1 unknown">
  <metadata
     id="metadata20">
    <rdf:RDF>
      <cc:Work
         rdf:about="">
        <dc:format>image/svg+xml</dc:format>
        <dc:type
           rdf:resource="http://purl.org/dc/dcmitype/StillImage" />
        <dc:title></dc:title>
      </cc:Work>
    </rdf:RDF>
  </metadata>
  <defs
     id="defs18">
    <linearGradient
       id="a"
       gradientUnits="userSpaceOnUse"
       x1="-974.48199"
       y1="1306.7729"
       x2="-622.37799"
       y2="1658.877"
       gradientTransform="matrix(0.12236707,0,0,0.12236707,416.86053,-89.839373)">
      <stop
         offset="0"
         stop-color="#2489be"
         id="stop87" />
      <stop
         offset="1"
         stop-color="#0575b3"
         id="stop89" />
    </linearGradient>
  </defs>
  <sodipodi:namedview
     pagecolor="#ffffff"
     bordercolor="#666666"
     borderopacity="1"
     objecttolerance="10"
     gridtolerance="10"
     guidetolerance="10"
     inkscape:pageopacity="0"
     inkscape:pageshadow="2"
     inkscape:window-width="1557"
     inkscape:window-height="876"
     id="namedview16"
     showgrid="false"
     fit-margin-top="0"
     fit-margin-left="0"
     fit-margin-right="0"
     fit-margin-bottom="0"
     inkscape:zoom="0.32284578"
     inkscape:cx="1514.6035"
     inkscape:cy="-100.74829"
     inkscape:window-x="43"
     inkscape:window-y="24"
     inkscape:window-maximized="1"
     inkscape:current-layer="text28" />
  <g
     id="g24"
     transform="matrix(0.10490463,0,0,0.10490463,113.20296,2.0417119)">
    <circle
       id="circle10"
       r="294.5"
       cy="296.78101"
       cx="420.944"
       style="fill:#2daae1" />
    <path
       id="path12"
       d="m 609.773,179.634 c -13.891,6.164 -28.811,10.331 -44.498,12.204 16.01,-9.587 28.275,-24.779 34.066,-42.86 a 154.78,154.78 0 0 1 -49.209,18.801 c -14.125,-15.056 -34.267,-24.456 -56.551,-24.456 -42.773,0 -77.462,34.675 -77.462,77.473 0,6.064 0.683,11.98 1.996,17.66 -64.389,-3.236 -121.474,-34.079 -159.684,-80.945 -6.672,11.446 -10.491,24.754 -10.491,38.953 0,26.875 13.679,50.587 34.464,64.477 a 77.122,77.122 0 0 1 -35.097,-9.686 v 0.979 c 0,37.54 26.701,68.842 62.145,75.961 -6.511,1.784 -13.344,2.716 -20.413,2.716 -4.998,0 -9.847,-0.473 -14.584,-1.364 9.859,30.769 38.471,53.166 72.363,53.799 -26.515,20.785 -59.925,33.175 -96.212,33.175 -6.25,0 -12.427,-0.373 -18.491,-1.104 34.291,21.988 75.006,34.824 118.759,34.824 142.496,0 220.428,-118.052 220.428,-220.428 0,-3.361 -0.074,-6.697 -0.236,-10.021 a 157.855,157.855 0 0 0 38.707,-40.158 z"
       inkscape:connector-curvature="0"
       style="fill:#ffffff" />
  </g>
  <g
     aria-label="@zandao"
     style="font-style:normal;font-weight:normal;font-size:10.05226707px;line-height:1.25;font-family:sans-serif;letter-spacing:0px;word-spacing:0px;fill:#000000;fill-opacity:1;stroke:none;stroke-width:0.23559999"
     id="text28">
    <path
       d="m 224.48215,34.566999 q 0,3.158512 1.56821,4.969687 1.56821,1.789088 4.30706,1.789088 2.71677,0 4.26289,-1.811175 1.56821,-1.811175 1.56821,-4.9476 0,-3.09225 -1.5903,-4.903425 -1.5903,-1.833262 -4.28497,-1.833262 -2.67259,0 -4.26289,1.811175 -1.56821,1.811174 -1.56821,4.925512 z m 12.03769,6.604162 q -1.32525,1.700738 -3.04808,2.517975 -1.70074,0.79515 -3.97575,0.79515 -3.79905,0 -6.1845,-2.73885 -2.36336,-2.760937 -2.36336,-7.178437 0,-4.4175 2.38545,-7.178437 2.38545,-2.760938 6.16241,-2.760938 2.27501,0 3.99784,0.839325 1.72282,0.817238 3.02599,2.495888 v -2.893463 h 3.15851 v 16.2564 q 3.22477,-0.485925 5.03595,-2.937638 1.83326,-2.4738 1.83326,-6.383287 0,-2.363362 -0.7068,-4.439587 -0.68471,-2.076225 -2.09831,-3.843225 -2.2971,-2.893463 -5.61023,-4.4175 -3.29103,-1.546125 -7.17843,-1.546125 -2.71677,0 -5.21265,0.728887 -2.49589,0.7068 -4.61629,2.1204 -3.46774,2.252925 -5.43353,5.91945 -1.9437,3.644438 -1.9437,7.907325 0,3.511912 1.25899,6.582075 1.28108,3.070162 3.68861,5.411437 2.31919,2.2971 5.36727,3.489825 3.04807,1.214813 6.51581,1.214813 2.84929,0 5.58814,-0.97185 2.76093,-0.949763 5.05803,-2.73885 l 1.98788,2.451712 q -2.76094,2.142488 -6.02989,3.26895 -3.24686,1.14855 -6.60416,1.14855 -4.08619,0 -7.70854,-1.457775 -3.62235,-1.435687 -6.44955,-4.196625 -2.8272,-2.760937 -4.30706,-6.383287 -1.47986,-3.644438 -1.47986,-7.818975 0,-4.019925 1.50195,-7.664362 1.50195,-3.644438 4.28497,-6.405375 2.84929,-2.805113 6.58208,-4.284975 3.73278,-1.50195 7.90732,-1.50195 4.68255,0 8.68039,1.921612 4.01992,1.921613 6.73669,5.455613 1.65656,2.164575 2.51797,4.704637 0.8835,2.540063 0.8835,5.256825 0,5.809012 -3.51191,9.166312 -3.51191,3.3573 -9.69641,3.489825 z"
       style="font-size:45.23519897px;stroke-width:0.23559999"
       id="path3899" />
    <path
       d="m 255.38256,21.689987 h 19.30447 v 3.7107 l -15.28454,17.780437 h 15.28454 v 3.246862 h -19.85666 v -3.7107 l 15.28455,-17.780437 h -14.73236 z"
       style="font-size:45.23519897px;stroke-width:0.23559999"
       id="path3901" />
    <path
       d="m 292.15825,33.992724 q -4.92551,0 -6.82504,1.126462 -1.89952,1.126463 -1.89952,3.843225 0,2.164575 1.4136,3.44565 1.43568,1.258988 3.8874,1.258988 3.37938,0 5.41143,-2.38545 2.05414,-2.407538 2.05414,-6.383288 v -0.905587 z m 8.10611,-1.67865 v 14.113912 h -4.0641 v -3.754875 q -1.39151,2.252925 -3.46774,3.335213 -2.07622,1.0602 -5.08012,1.0602 -3.79905,0 -6.05198,-2.1204 -2.23083,-2.142488 -2.23083,-5.720663 0,-4.174537 2.78302,-6.294937 2.80511,-2.1204 8.34908,-2.1204 h 5.69857 v -0.397575 q 0,-2.805112 -1.85535,-4.32915 -1.83326,-1.546125 -5.16847,-1.546125 -2.1204,0 -4.13037,0.508013 -2.00996,0.508012 -3.86531,1.524037 v -3.754875 q 2.23084,-0.861412 4.32915,-1.281075 2.09831,-0.44175 4.08619,-0.44175 5.36726,0 8.01776,2.783025 2.6505,2.783025 2.6505,8.437425 z"
       style="font-size:45.23519897px;stroke-width:0.23559999"
       id="path3903" />
    <path
       d="m 329.22107,31.496836 v 14.93115 h -4.0641 V 31.629361 q 0,-3.511912 -1.36942,-5.256824 -1.36943,-1.744913 -4.10828,-1.744913 -3.29104,0 -5.19056,2.098313 -1.89953,2.098312 -1.89953,5.720662 V 46.427986 H 308.503 V 21.689987 h 4.08618 v 3.843225 q 1.45778,-2.230838 3.42357,-3.335213 1.98787,-1.104375 4.57211,-1.104375 4.26289,0 6.44955,2.6505 2.18666,2.628413 2.18666,7.752712 z"
       style="font-size:45.23519897px;stroke-width:0.23559999"
       id="path3905" />
    <path
       d="M 353.64985,25.444862 V 12.059837 h 4.0641 v 34.368149 h -4.0641 v -3.7107 q -1.28108,2.20875 -3.24686,3.291038 -1.9437,1.0602 -4.68255,1.0602 -4.48377,0 -7.31097,-3.578175 -2.80511,-3.578175 -2.80511,-9.409275 0,-5.8311 2.80511,-9.409275 2.8272,-3.578175 7.31097,-3.578175 2.73885,0 4.68255,1.082288 1.96578,1.0602 3.24686,3.26895 z m -13.84886,8.636212 q 0,4.483762 1.83326,7.045912 1.85535,2.540063 5.08012,2.540063 3.22478,0 5.08013,-2.540063 1.85535,-2.56215 1.85535,-7.045912 0,-4.483762 -1.85535,-7.023825 -1.85535,-2.56215 -5.08013,-2.56215 -3.22477,0 -5.08012,2.56215 -1.83326,2.540063 -1.83326,7.023825 z"
       style="font-size:45.23519897px;stroke-width:0.23559999"
       id="path3907" />
    <path
       d="m 377.32764,33.992724 q -4.92551,0 -6.82503,1.126462 -1.89953,1.126463 -1.89953,3.843225 0,2.164575 1.4136,3.44565 1.43569,1.258988 3.8874,1.258988 3.37939,0 5.41144,-2.38545 2.05414,-2.407538 2.05414,-6.383288 v -0.905587 z m 8.10612,-1.67865 v 14.113912 h -4.0641 v -3.754875 q -1.39152,2.252925 -3.46774,3.335213 -2.07623,1.0602 -5.08013,1.0602 -3.79905,0 -6.05197,-2.1204 -2.23084,-2.142488 -2.23084,-5.720663 0,-4.174537 2.78303,-6.294937 2.80511,-2.1204 8.34907,-2.1204 h 5.69858 v -0.397575 q 0,-2.805112 -1.85535,-4.32915 -1.83327,-1.546125 -5.16848,-1.546125 -2.1204,0 -4.13036,0.508013 -2.00996,0.508012 -3.86531,1.524037 v -3.754875 q 2.23083,-0.861412 4.32915,-1.281075 2.09831,-0.44175 4.08618,-0.44175 5.36727,0 8.01777,2.783025 2.6505,2.783025 2.6505,8.437425 z"
       style="font-size:45.23519897px;stroke-width:0.23559999"
       id="path3909" />
    <path
       d="m 403.41298,24.539274 q -3.26895,0 -5.16848,2.56215 -1.89952,2.540063 -1.89952,6.97965 0,4.439587 1.87744,7.001737 1.89952,2.540063 5.19056,2.540063 3.24686,0 5.14639,-2.56215 1.89952,-2.56215 1.89952,-6.97965 0,-4.395412 -1.89952,-6.957562 -1.89953,-2.584238 -5.14639,-2.584238 z m 0,-3.44565 q 5.301,0 8.32699,3.44565 3.02598,3.44565 3.02598,9.5418 0,6.074062 -3.02598,9.5418 -3.02599,3.44565 -8.32699,3.44565 -5.32309,0 -8.34908,-3.44565 -3.0039,-3.467738 -3.0039,-9.5418 0,-6.09615 3.0039,-9.5418 3.02599,-3.44565 8.34908,-3.44565 z"
       style="font-size:45.23519897px;stroke-width:0.23559999"
       id="path3911" />
  </g>
  <g
     aria-label="alexandredrummond"
     style="font-style:normal;font-weight:normal;font-size:10.05226707px;line-height:1.25;font-family:sans-serif;letter-spacing:0px;word-spacing:0px;fill:#000000;fill-opacity:1;stroke:none;stroke-width:0.23559999"
     id="text28-9">
    <path
       d="m 223.1569,120.27403 q -4.92551,0 -6.82504,1.12646 -1.89952,1.12646 -1.89952,3.84322 0,2.16458 1.4136,3.44565 1.43568,1.25899 3.8874,1.25899 3.37938,0 5.41143,-2.38545 2.05414,-2.40754 2.05414,-6.38329 v -0.90558 z m 8.10611,-1.67865 v 14.11391 h -4.0641 v -3.75488 q -1.39151,2.25293 -3.46774,3.33522 -2.07622,1.0602 -5.08012,1.0602 -3.79905,0 -6.05198,-2.1204 -2.23083,-2.14249 -2.23083,-5.72067 0,-4.17453 2.78302,-6.29493 2.80511,-2.1204 8.34908,-2.1204 h 5.69857 v -0.39758 q 0,-2.80511 -1.85535,-4.32915 -1.83326,-1.54612 -5.16847,-1.54612 -2.1204,0 -4.13037,0.50801 -2.00996,0.50801 -3.86531,1.52404 v -3.75488 q 2.23084,-0.86141 4.32915,-1.28107 2.09831,-0.44175 4.08619,-0.44175 5.36726,0 8.01776,2.78302 2.6505,2.78303 2.6505,8.43743 z"
       style="font-size:45.23519897px;stroke-width:0.23559999"
       id="path3914" />
    <path
       d="m 239.65626,98.34114 h 4.0641 v 34.36815 h -4.0641 z"
       style="font-size:45.23519897px;stroke-width:0.23559999"
       id="path3916" />
    <path
       d="m 273.36178,119.32426 v 1.98788 h -18.68602 q 0.26505,4.19662 2.51797,6.40537 2.27502,2.18667 6.31703,2.18667 2.34127,0 4.52794,-0.57428 2.20875,-0.57427 4.37332,-1.72282 v 3.84322 q -2.18666,0.92768 -4.48376,1.4136 -2.2971,0.48593 -4.66046,0.48593 -5.91945,0 -9.38719,-3.44565 -3.44565,-3.44565 -3.44565,-9.32093 0,-6.07406 3.26895,-9.63015 3.29104,-3.57817 8.85709,-3.57817 4.99177,0 7.88523,3.22477 2.91555,3.20269 2.91555,8.72456 z m -4.0641,-1.19272 q -0.0442,-3.33521 -1.87743,-5.32309 -1.81118,-1.98787 -4.81508,-1.98787 -3.40147,0 -5.45561,1.92161 -2.03205,1.92161 -2.34128,5.41144 z"
       style="font-size:45.23519897px;stroke-width:0.23559999"
       id="path3918" />
    <path
       d="m 299.80052,107.97129 -8.94543,12.03769 9.40927,12.70031 h -4.79299 l -7.20052,-9.7185 -7.20053,9.7185 h -4.79298 l 9.60806,-12.94328 -8.79083,-11.79472 h 4.79299 l 6.55999,8.81291 6.55999,-8.81291 z"
       style="font-size:45.23519897px;stroke-width:0.23559999"
       id="path3920" />
    <path
       d="m 317.24965,120.27403 q -4.92551,0 -6.82504,1.12646 -1.89952,1.12646 -1.89952,3.84322 0,2.16458 1.4136,3.44565 1.43568,1.25899 3.8874,1.25899 3.37938,0 5.41143,-2.38545 2.05414,-2.40754 2.05414,-6.38329 v -0.90558 z m 8.10611,-1.67865 v 14.11391 h -4.0641 v -3.75488 q -1.39151,2.25293 -3.46774,3.33522 -2.07622,1.0602 -5.08012,1.0602 -3.79905,0 -6.05198,-2.1204 -2.23083,-2.14249 -2.23083,-5.72067 0,-4.17453 2.78302,-6.29493 2.80511,-2.1204 8.34908,-2.1204 h 5.69857 v -0.39758 q 0,-2.80511 -1.85535,-4.32915 -1.83326,-1.54612 -5.16847,-1.54612 -2.1204,0 -4.13037,0.50801 -2.00996,0.50801 -3.86531,1.52404 v -3.75488 q 2.23084,-0.86141 4.32915,-1.28107 2.09831,-0.44175 4.08619,-0.44175 5.36726,0 8.01776,2.78302 2.6505,2.78303 2.6505,8.43743 z"
       style="font-size:45.23519897px;stroke-width:0.23559999"
       id="path3922" />
    <path
       d="m 354.31247,117.77814 v 14.93115 h -4.0641 v -14.79863 q 0,-3.51191 -1.36942,-5.25682 -1.36943,-1.74491 -4.10828,-1.74491 -3.29104,0 -5.19056,2.09831 -1.89953,2.09831 -1.89953,5.72066 v 13.98139 h -4.08618 v -24.738 h 4.08618 v 3.84323 q 1.45778,-2.23084 3.42357,-3.33522 1.98787,-1.10437 4.57211,-1.10437 4.26289,0 6.44955,2.6505 2.18666,2.62841 2.18666,7.75271 z"
       style="font-size:45.23519897px;stroke-width:0.23559999"
       id="path3924" />
    <path
       d="M 378.74125,111.72617 V 98.34114 h 4.0641 v 34.36815 h -4.0641 v -3.7107 q -1.28108,2.20875 -3.24686,3.29104 -1.9437,1.0602 -4.68255,1.0602 -4.48377,0 -7.31097,-3.57818 -2.80511,-3.57817 -2.80511,-9.40927 0,-5.8311 2.80511,-9.40928 2.8272,-3.57817 7.31097,-3.57817 2.73885,0 4.68255,1.08229 1.96578,1.0602 3.24686,3.26895 z m -13.84886,8.63621 q 0,4.48376 1.83326,7.04591 1.85535,2.54006 5.08012,2.54006 3.22478,0 5.08013,-2.54006 1.85535,-2.56215 1.85535,-7.04591 0,-4.48377 -1.85535,-7.02383 -1.85535,-2.56215 -5.08013,-2.56215 -3.22477,0 -5.08012,2.56215 -1.83326,2.54006 -1.83326,7.02383 z"
       style="font-size:45.23519897px;stroke-width:0.23559999"
       id="path3926" />
    <path
       d="m 405.51129,111.77034 q -0.68471,-0.39757 -1.50195,-0.57427 -0.79515,-0.19879 -1.767,-0.19879 -3.44565,0 -5.301,2.25292 -1.83326,2.23084 -1.83326,6.42746 v 13.03163 h -4.08619 v -24.738 h 4.08619 v 3.84323 q 1.28108,-2.25293 3.33521,-3.33522 2.05414,-1.10437 4.99178,-1.10437 0.41966,0 0.92767,0.0663 0.50802,0.0442 1.12647,0.15461 z"
       style="font-size:45.23519897px;stroke-width:0.23559999"
       id="path3928" />
    <path
       d="m 430.00633,119.32426 v 1.98788 h -18.68602 q 0.26505,4.19662 2.51797,6.40537 2.27501,2.18667 6.31703,2.18667 2.34127,0 4.52793,-0.57428 2.20875,-0.57427 4.37333,-1.72282 v 3.84322 q -2.18666,0.92768 -4.48376,1.4136 -2.2971,0.48593 -4.66047,0.48593 -5.91945,0 -9.38718,-3.44565 -3.44565,-3.44565 -3.44565,-9.32093 0,-6.07406 3.26895,-9.63015 3.29103,-3.57817 8.85708,-3.57817 4.99178,0 7.88524,3.22477 2.91555,3.20269 2.91555,8.72456 z m -4.0641,-1.19272 q -0.0442,-3.33521 -1.87744,-5.32309 -1.81117,-1.98787 -4.81507,-1.98787 -3.40148,0 -5.45561,1.92161 -2.03205,1.92161 -2.34128,5.41144 z"
       style="font-size:45.23519897px;stroke-width:0.23559999"
       id="path3930" />
    <path
       d="M 452.95524,111.72617 V 98.34114 h 4.0641 v 34.36815 h -4.0641 v -3.7107 q -1.28108,2.20875 -3.24686,3.29104 -1.9437,1.0602 -4.68255,1.0602 -4.48377,0 -7.31097,-3.57818 -2.80511,-3.57817 -2.80511,-9.40927 0,-5.8311 2.80511,-9.40928 2.8272,-3.57817 7.31097,-3.57817 2.73885,0 4.68255,1.08229 1.96578,1.0602 3.24686,3.26895 z m -13.84886,8.63621 q 0,4.48376 1.83326,7.04591 1.85535,2.54006 5.08012,2.54006 3.22478,0 5.08013,-2.54006 1.85535,-2.56215 1.85535,-7.04591 0,-4.48377 -1.85535,-7.02383 -1.85535,-2.56215 -5.08013,-2.56215 -3.22477,0 -5.08012,2.56215 -1.83326,2.54006 -1.83326,7.02383 z"
       style="font-size:45.23519897px;stroke-width:0.23559999"
       id="path3932" />
    <path
       d="m 479.7253,111.77034 q -0.68471,-0.39757 -1.50195,-0.57427 -0.79515,-0.19879 -1.767,-0.19879 -3.44565,0 -5.301,2.25292 -1.83326,2.23084 -1.83326,6.42746 v 13.03163 h -4.08619 v -24.738 h 4.08619 v 3.84323 q 1.28107,-2.25293 3.33521,-3.33522 2.05414,-1.10437 4.99177,-1.10437 0.41967,0 0.92768,0.0663 0.50801,0.0442 1.12646,0.15461 z"
       style="font-size:45.23519897px;stroke-width:0.23559999"
       id="path3934" />
    <path
       d="m 483.61268,122.94661 v -14.97532 h 4.0641 V 122.792 q 0,3.51191 1.36942,5.27891 1.36943,1.74492 4.10828,1.74492 3.29104,0 5.19056,-2.09832 1.92161,-2.09831 1.92161,-5.72066 v -14.02556 h 4.0641 v 24.738 h -4.0641 v -3.79905 q -1.47986,2.25292 -3.44565,3.3573 -1.9437,1.08229 -4.52793,1.08229 -4.26289,0 -6.47164,-2.6505 -2.20875,-2.6505 -2.20875,-7.75272 z m 10.22651,-15.57168 z"
       style="font-size:45.23519897px;stroke-width:0.23559999"
       id="path3936" />
    <path
       d="m 532.00642,112.7201 q 1.52404,-2.73885 3.64443,-4.04201 2.1204,-1.30316 4.99178,-1.30316 3.86531,0 5.96362,2.71676 2.09832,2.69468 2.09832,7.68645 v 14.93115 h -4.08619 v -14.79863 q 0,-3.55608 -1.25899,-5.27891 -1.25899,-1.72282 -3.84322,-1.72282 -3.15852,0 -4.99178,2.09831 -1.83326,2.09831 -1.83326,5.72066 v 13.98139 h -4.08619 v -14.79863 q 0,-3.57817 -1.25898,-5.27891 -1.25899,-1.72282 -3.8874,-1.72282 -3.11434,0 -4.9476,2.1204 -1.83327,2.09831 -1.83327,5.69857 v 13.98139 h -4.08618 v -24.738 h 4.08618 v 3.84323 q 1.39152,-2.27502 3.33522,-3.3573 1.9437,-1.08229 4.61628,-1.08229 2.69468,0 4.57212,1.36942 1.89952,1.36943 2.80511,3.97575 z"
       style="font-size:45.23519897px;stroke-width:0.23559999"
       id="path3938" />
    <path
       d="m 576.09306,112.7201 q 1.52403,-2.73885 3.64443,-4.04201 2.1204,-1.30316 4.99178,-1.30316 3.86531,0 5.96362,2.71676 2.09832,2.69468 2.09832,7.68645 v 14.93115 h -4.08619 v -14.79863 q 0,-3.55608 -1.25899,-5.27891 -1.25899,-1.72282 -3.84322,-1.72282 -3.15852,0 -4.99178,2.09831 -1.83326,2.09831 -1.83326,5.72066 v 13.98139 h -4.08619 v -14.79863 q 0,-3.57817 -1.25899,-5.27891 -1.25898,-1.72282 -3.8874,-1.72282 -3.11433,0 -4.9476,2.1204 -1.83326,2.09831 -1.83326,5.69857 v 13.98139 h -4.08619 v -24.738 h 4.08619 v 3.84323 q 1.39151,-2.27502 3.33521,-3.3573 1.9437,-1.08229 4.61629,-1.08229 2.69468,0 4.57211,1.36942 1.89953,1.36943 2.80512,3.97575 z"
       style="font-size:45.23519897px;stroke-width:0.23559999"
       id="path3940" />
    <path
       d="m 610.50537,110.82058 q -3.26895,0 -5.16847,2.56215 -1.89953,2.54006 -1.89953,6.97965 0,4.43958 1.87744,7.00173 1.89952,2.54007 5.19056,2.54007 3.24686,0 5.14639,-2.56215 1.89952,-2.56215 1.89952,-6.97965 0,-4.39542 -1.89952,-6.95757 -1.89953,-2.58423 -5.14639,-2.58423 z m 0,-3.44565 q 5.301,0 8.32699,3.44565 3.02599,3.44565 3.02599,9.5418 0,6.07406 -3.02599,9.5418 -3.02599,3.44565 -8.32699,3.44565 -5.32309,0 -8.34907,-3.44565 -3.0039,-3.46774 -3.0039,-9.5418 0,-6.09615 3.0039,-9.5418 3.02598,-3.44565 8.34907,-3.44565 z"
       style="font-size:45.23519897px;stroke-width:0.23559999"
       id="path3942" />
    <path
       d="m 649.13642,117.77814 v 14.93115 h -4.0641 v -14.79863 q 0,-3.51191 -1.36942,-5.25682 -1.36943,-1.74491 -4.10828,-1.74491 -3.29103,0 -5.19056,2.09831 -1.89952,2.09831 -1.89952,5.72066 v 13.98139 h -4.08619 v -24.738 h 4.08619 v 3.84323 q 1.45777,-2.23084 3.42356,-3.33522 1.98787,-1.10437 4.57211,-1.10437 4.26289,0 6.44955,2.6505 2.18666,2.62841 2.18666,7.75271 z"
       style="font-size:45.23519897px;stroke-width:0.23559999"
       id="path3944" />
    <path
       d="M 673.56519,111.72617 V 98.34114 h 4.0641 v 34.36815 h -4.0641 v -3.7107 q -1.28107,2.20875 -3.24686,3.29104 -1.9437,1.0602 -4.68255,1.0602 -4.48376,0 -7.31096,-3.57818 -2.80511,-3.57817 -2.80511,-9.40927 0,-5.8311 2.80511,-9.40928 2.8272,-3.57817 7.31096,-3.57817 2.73885,0 4.68255,1.08229 1.96579,1.0602 3.24686,3.26895 z m -13.84886,8.63621 q 0,4.48376 1.83326,7.04591 1.85535,2.54006 5.08013,2.54006 3.22477,0 5.08012,-2.54006 1.85535,-2.56215 1.85535,-7.04591 0,-4.48377 -1.85535,-7.02383 -1.85535,-2.56215 -5.08012,-2.56215 -3.22478,0 -5.08013,2.56215 -1.83326,2.54006 -1.83326,7.02383 z"
       style="font-size:45.23519897px;stroke-width:0.23559999"
       id="path3946" />
  </g>
  <g
     id="g3797"
     transform="matrix(1.0148202,0,0,1.0148202,-166.52712,26.489769)">
    <path
       id="path92"
       d="m 319.15899,61.143249 c -16.82621,0 -30.46635,13.640139 -30.46635,30.466351 0,16.8262 13.64014,30.46634 30.46635,30.46634 16.8262,0 30.46646,-13.64014 30.46646,-30.46634 -1.1e-4,-16.826212 -13.6405,-30.466351 -30.46646,-30.466351 z m -8.12848,45.195431 h -6.68919 V 84.727793 h 6.68919 z m -3.37647,-24.441001 c -2.18463,0 -3.95565,-1.785451 -3.95565,-3.987569 0,-2.202361 1.77127,-3.98769 3.95565,-3.98769 2.18437,0 3.95539,1.785329 3.95539,3.98769 9e-5,2.20224 -1.7709,3.987569 -3.95539,3.987569 z m 28.44421,24.441001 H 329.4415 V 94.994762 c 0,-3.111307 -1.18184,-4.848065 -3.64203,-4.848065 -2.67751,0 -4.07629,1.808828 -4.07629,4.848065 v 11.343918 h -6.4157 V 84.727793 h 6.4157 v 2.910619 c 0,0 1.92985,-3.569817 6.51226,-3.569817 4.58252,0 7.86293,2.798045 7.86293,8.58639 z"
       style="fill:url(#a);stroke-width:0.12236708"
       inkscape:connector-curvature="0" />
  </g>
</svg>
