<?xml version="1.0" encoding="utf-8"?>
<!-- Generator: Adobe Illustrator 19.2.1, SVG Export Plug-In . SVG Version: 6.00 Build 0)  -->
<svg version="1.1" id="Layer_1" xmlns="http://www.w3.org/2000/svg" xmlns:xlink="http://www.w3.org/1999/xlink" x="0px" y="0px"
	 viewBox="0 0 275 260" enable-background="new 0 0 275 260" xml:space="preserve">
<g id="monsters_2_">
	<g>
		<path fill="#0EB276" d="M8.2,245.1c4.1,0.5,8.3-0.1,12-1.7c-5.8,5.2-6.5,12.6-5,16.5h241.9c-3.2-6.1-7.1-11.1-13.4-13.9V246
			c4.4,0.9,8.7,2.1,13,3.8c-1.7-7.5-7.1-14.3-14.2-17.3c0-0.2-0.1-0.5-0.1-0.6c2.6-2,5.5-3.5,8.7-4.4c-5.1-2.7-9.9-6-14.3-9.7
			c-0.7-1.3-1.5-2.6-2.4-3.8c3.7,0.1,7.3-0.1,11-0.9c-4.7-7.4-13-12.5-21.7-13.4c4.4-1.1,8.6-2.1,13-3.3c-6.3-2-11.7-6.6-14.6-12.5
			c2.8-1.3,5.9-2,9-1.9c-4.5-3.9-3.9-3.8-5.3-9.6c3.5,0.2,7,2.1,9.1,4.8c-0.6-7.3-3.9-14.4-9.2-19.6c4-0.1,7.9-1.8,10.7-4.5
			c-5.9-0.1-11.8-3.5-14.7-8.6c1.9,0.1,5.9,0.2,7.8,0.4c-1.8-5.1-5.7-9.9-10.5-13.3c3.9-0.6,7.7-2,11.1-3.9
			c-3.5-0.1-6.7-1.9-9.3-4.2s-4.6-5.3-6.5-8.1c3.1,0.1,6.1,0.4,9.3,0.5c-2.7-3.2-5.5-6.4-9-8.7c-3.4-2.4-7.5-4-11.7-3.7
			c4.4-0.9,8.5-3.4,11.2-7c-7,0.4-14,0.1-21-0.7c3.7-3.1,8.5-4.8,13.3-5c-8.8-2.2-18.4-1.9-27,1.2c1.5-3.3,2.1-7,2-10.5
			c-5.7,6.3-14.4,9.4-22.8,8.4c2-1.7,6.3-6.7,8.4-8.5c-7.8-0.7-19.7,3.1-27.4,7.9c-0.7-1.2-1.9-2.2-3.2-2.9
			c-2.6-1.4-5.7-1.9-8.5-2.5c-6.8-1.4-14.2-4.7-16.6-11.3c-0.9,5.4,0.9,11.2,4.8,15.1c-10.5-2.7-21.5-3.8-32.2-3.1
			c3.9,0.9,7.4,3.3,10,6.4c-4.1,0.2-8.3,0.5-12.3-0.2c-4-0.7-8-2.4-10.9-5.4C70,89.4,71.4,94,74.6,97c-10.3-0.5-20.6,3.8-27.7,11.2
			c4.5-0.7,9.1-1.1,13.7-1.1c-4.7,2.1-8.8,5.3-12.2,9.2c4.4-0.7,8.8-1.4,13.2-0.5c-2.5,0.5-4.8,1.7-6.6,3.5
			c-1.3,1.4-2.2,3.2-3.4,4.7c-1.9,2.4-4.4,4.1-7.2,5.2c4.2,0.7,8.8-0.5,12.4-3.1c-3.8,3.4-7.5,7-10.6,11c-3.1,4-5.3,8.8-5.7,14
			c2.9-3.7,7.1-6.4,11.7-7.5c-1.5,8.4-5.9,16.3-12.2,22.1c4.6,0.4,9.3-1.5,12.4-5c-3.8,6.6-7.8,13.6-8.1,21.2
			c1.9-1.3,3.8-2.6,5.5-3.9c0.7,3.5-0.2,7.4-2.4,10.3c1.8,0.8,3.7,1.4,5.7,1.5v2.4c-7.5,0-15.1,1.2-22.2,3.8
			c4.4,0.4,8.6,1.3,12.7,2.6c-6.4,5.9-14.3,10.1-22.8,12c4.2,1.4,8.7,2.2,13.2,2.2c-9.3,3.3-19.5,7.3-24.1,16
			c4.6-0.6,9.2-1.2,13.7-2C20,234.4,14.7,240.7,8.2,245.1z M59.5,193.9l1.1,0.1c-0.4,0.1-0.7,0.2-1.1,0.4V193.9z"/>
		<path fill="#8474B5" d="M195.5,173.1c0-0.4,0.1-0.7,0.1-1.1c0-0.5,0-0.9,0-1.5c0-0.8,0-1.5-0.1-2.4c0-0.1,0-0.2,0-0.2
			c1.8,0.2,3.2,0.5,5.7,1.4c-1.1-6-2.7-10.6-8.5-13.4c2.6-0.6,5.1-1.2,7.7-1.9c-5.2-0.5-10.3-2.7-14.2-6.3c2.1-0.9,4.5-1.4,6.7-1.3
			c-4.7-2-8.7-3.3-13.8-2.5c0.8-2,0.7-3.2,2.1-4.8c-3.2,1.8-7,2.2-10.7,2.2c0.5-1.3,1.2-2.5,2-3.5c-3.9,0.4-7.8,1.5-11.2,3.3h-1.4
			c0.4-1.5,0.8-3.1,1.2-4.6c-4,0.8-7.9,2.4-11.4,4.5c-0.8-1.3-1.2-2.9-1.1-4.5c-2.1,1.4-4.4,2.7-6.5,4.1c-0.4,0.2-0.8,0.5-1.3,0.6
			c-0.5,0-0.8-0.2-1.3-0.4c-3.5-1.7-7.3-2.9-11.2-3.7c0.5,0.6,0.9,1.2,1.2,1.9c0.2,0.7-0.1,1.8-0.8,1.8c-3.9-2.2-8.3-3.9-12.7-4.6
			c0.7,1.7,1.4,3.4,2.1,5.1h-1.7c-4-1.3-8-2.6-12-3.9c0.6,1.2,1.2,2.4,1.8,3.5c-2.2,0.1-4.5-0.5-6.4-1.7c0.4,0.7,0.8,1.3,1.3,2
			c-2.7-0.2-5.3-0.7-7.9-1.4c0.1,1.2,0.2,2.2,0.4,3.4c-7.2,0.8-14,3.8-19.5,8.5c2.2-0.1,4.5-0.4,6.8-0.5c-2.9,3.7-6.4,7-10.3,9.6
			c2.1-0.2,4.1-0.8,6.1-1.5c-2.9,3.2-4.2,7.8-3.7,12.2c1.1-1.7,1.8-2.5,2.6-3.1l0,0c-0.1,0.8-0.1,1.5-0.1,2.4c0,0.4,0,0.8,0,1.2
			c-2.2,1.8-3.7,4.5-4.1,7.3c-0.5,2.9-0.2,6,0,9c1.7-1.5,3.2-3.1,4.8-4.6c1.8,4.6,2.7,9.6,2.7,14.6c2.5-0.7,4.8-2,6.7-3.8
			c3.4,5.2,8.6,9.3,14.5,11.3c-0.1-2,0.4-4.1,1.4-5.9c0.2,0,0.5,0,0.7,0.1c2.5,1.1,4.2,3.9,4,6.7c-0.1,1.2-0.2,2.8,0.9,3.1
			c0.4,0,0.7-0.1,1.1-0.2c3.7-1.8,6.6-4.6,8.6-8.1c2.7,2.8,5.9,5.2,9.4,7c0.6-2-0.5-4.5,0.9-6c1.4-1.4,4.1-0.2,4.8,1.5
			c0.7,1.9,0.2,4-0.4,5.9c6-1.1,11.7-4.1,15.7-8.6c-0.5,2-0.5,4.1,0,6.1c4.4-1.8,8.5-4.1,12-7.2h0.5c0.1,2.8,0.7,5.7,2,8.3
			c4.4-1.2,8.3-4.1,10.5-8.1c0.9,2,1.9,4,2.8,6.1c4.4-3.4,7.9-7.9,10.1-13c-0.1,3.3,1.8,6.5,4.7,8c-1.4-4.6-1.3-9.8,0.5-14.3
			c1.3,2.1,3.2,3.9,5.4,5c0-3.7,0-7.3,0-11c0.8,0,0.8-0.1,1.7-0.2C198.3,177.9,197.5,174.5,195.5,173.1z"/>
		<circle fill="#4E81AE" cx="170.2" cy="122" r="13.3"/>
		<circle fill="#FFFFFF" cx="170.2" cy="122" r="10.1"/>
		<circle fill="#4E81AE" cx="170.2" cy="122" r="5.1"/>
		<circle fill="#4E81AE" cx="137" cy="117.7" r="17.7"/>
		<circle fill="#FFFFFF" cx="137" cy="117.7" r="13.4"/>
		<circle fill="#4E81AE" cx="137" cy="117.7" r="6.6"/>
		<circle fill="#4E81AE" cx="102" cy="122" r="13.3"/>
		<circle fill="#FFFFFF" cx="102" cy="122" r="10.1"/>
		<circle fill="#4E81AE" cx="102" cy="122" r="5.1"/>
		
			<rect x="170.3" y="94.1" transform="matrix(0.3395 -0.9406 0.9406 0.3395 17.2703 230.513)" fill="#049966" width="5" height="17.7"/>
		
			<rect x="87.2" y="100.8" transform="matrix(0.9327 -0.3606 0.3606 0.9327 -30.7673 41.5973)" fill="#049966" width="17.7" height="5"/>
		<path fill="#FFFFFF" d="M93.9,180.1l-5-9.8h12.5l-5,9.8C96,181.3,94.4,181.3,93.9,180.1z"/>
		<path fill="#FFFFFF" d="M106.9,180.1l-5-9.8h12.5l-5,9.8C109,181.3,107.5,181.3,106.9,180.1z"/>
		<path fill="#FFFFFF" d="M120,180.1l-5-9.8h12.5l-5,9.8C122,181.3,120.6,181.3,120,180.1z"/>
		<path fill="#FFFFFF" d="M133.1,180.1l-5-9.8h12.5l-5,9.8C135.1,181.3,133.6,181.3,133.1,180.1z"/>
		<path fill="#FFFFFF" d="M146.1,180.1l-5-9.8h12.5l-5,9.8C148.1,181.3,146.7,181.3,146.1,180.1z"/>
		<path fill="#FFFFFF" d="M159.2,180.1l-5-9.8h12.5l-5,9.8C161.2,181.3,159.8,181.3,159.2,180.1z"/>
		<path fill="#FFFFFF" d="M172.3,180.1l-5-9.8h12.5l-5,9.8C174.3,181.3,172.8,181.3,172.3,180.1z"/>
		<path fill="#B17CB6" d="M195.7,170.3c0,0.5,0,0.9,0,1.5H75.8c0-0.5,0-0.9,0-1.5c0-0.8,0-1.5,0.1-2.4h119.9
			C195.7,168.8,195.7,169.6,195.7,170.3z"/>
		<circle fill="#786BA6" cx="144.6" cy="146.9" r="3.7"/>
		<circle fill="#5F5484" cx="144.6" cy="146.9" r="1.8"/>
		<circle fill="#786BA6" cx="129.5" cy="146.9" r="3.7"/>
		<circle fill="#5F5484" cx="129.5" cy="146.9" r="1.8"/>
		
			<rect x="127.1" y="92.4" transform="matrix(0.9947 -0.1025 0.1025 0.9947 -9.007 14.4369)" fill="#049966" width="17.7" height="5"/>
		<path fill="#58BA75" d="M90.5,243.5c-4.1,4.6-6.8,10.4-7.7,16.5h104.5c-0.6-1.1-1.3-2-2-2.9c1.4-1.4,3.3-2.2,5.3-2.6
			c-4.4-6.1-8.4-12.4-11.9-18.9c2-0.6,4-0.6,6-0.4c-5.4-5.2-12.4-8.6-19.7-9.8c1.1-2,1.3-4.2,0.9-6.5c-6.3,3.3-13.7,4.6-20.6,3.5
			c0.6-2.2,1.8-4.4,3.3-6c-7.1,0.4-14,3.1-19.5,7.5c-3.7-1.5-7-3.9-9.6-6.8c0.8,1.9,1.1,3.9,0.7,5.9c-8.7-1.1-17.7,0.6-25.4,4.7
			c2.8,0.2,5.5,0.5,8.4,0.6c-7,5.4-14.3,10.4-22.1,14.6C84.3,243.4,87.5,243.4,90.5,243.5z"/>
	</g>
</g>
</svg>
